# xmcd CD database file
#
# Track frame offsets:
#	150
#	13315
#	25310
#	40362
#	53714
#	66601
#	87760
#	100233
#	111608
#	121917
#	134979
#	150798
#	164098
#	173612
#	186606
#	195065
#	205537
#	216421
#	226056
#	239104
#
# Disc length: 3404 seconds
#
# Revision: 0
# Processed by: cddbd v1.5.2PL0 Copyright (c) Steve Scherf et al.
# Submitted via: CDex 1.70beta2
#
DISCID=250d4a14
DTITLE=Diverse - Trucker and Country Hits   CD4
DYEAR=2008
DGENRE=Country
TTITLE0=Kenny Rogers - Ruby, Don't Take Your Love To Town
TTITLE1=Tammy Wynette - Stand By Your Man
TTITLE2=Billie Davis - Angel Of The Morning
TTITLE3=Jimmy Dean - Big Bad John
TTITLE4=Johnny Horton - North To Alaska
TTITLE5=Olivia Newton John - If Not For You
TTITLE6=The Oak Ridge Boys - In The Shelter Of His Arms
TTITLE7=Roy Orbison - Blue Bayou
TTITLE8=Mel McDaniel - Lousiana Saturday Night
TTITLE9=Loretta Lynn - Let Your Love Flow
TTITLE10=Lucky - It Only Takes A Little Women
TTITLE11=Gordon Lightfoot - Long Way Back Home
TTITLE12=Dolly Parton - Release Me
TTITLE13=Crystal Gayle - Talkin' In Your Sleep
TTITLE14=Roger Miller - England Swings
TTITLE15=Floyd Cramer - San Antonio Rose
TTITLE16=Patsy Cline - I Don't Wanna
TTITLE17=Glenn Campbell - Gentle On My Mind
TTITLE18=Bellamy Brothers -  Get Into Reaggae Cowboy
TTITLE19=Johnny Cash - A Boy Named Sue
EXTD=YEAR: 2008
EXTT0=
EXTT1=
EXTT2=
EXTT3=
EXTT4=
EXTT5=
EXTT6=
EXTT7=
EXTT8=
EXTT9=
EXTT10=
EXTT11=
EXTT12=
EXTT13=
EXTT14=
EXTT15=
EXTT16=
EXTT17=
EXTT18=
EXTT19=
PLAYORDER=
